<svg width="60" height="18" viewBox="0 0 60 18" fill="none" xmlns="http://www.w3.org/2000/svg">
<path d="M0 13.875V0H2.52387V5.6625H4.15919L8.14823 0H10.8328L6.10645 6.7125L11.2393 13.875H8.46017L4.14029 7.88437H2.52387V13.875H0Z" fill="white"/>
<path d="M16.8935 14.0625C15.0659 14.0625 13.711 13.6469 12.8288 12.8156C11.9465 11.9781 11.5054 10.625 11.5054 8.75625C11.5054 7.025 11.9056 5.71562 12.7059 4.82812C13.5125 3.93437 14.6374 3.4875 16.0805 3.4875C17.4669 3.4875 18.5288 3.93437 19.2661 4.82812C20.0034 5.72187 20.3721 7.05625 20.3721 8.83125V9.49688H14.0009C14.0387 10.4844 14.3034 11.1781 14.795 11.5781C15.2928 11.9719 16.1057 12.1687 17.2338 12.1687C17.6308 12.1687 18.0467 12.1375 18.4815 12.075C18.9163 12.0125 19.3638 11.925 19.8238 11.8125V13.6969C19.2944 13.8281 18.7903 13.9219 18.3114 13.9781C17.8387 14.0344 17.3661 14.0625 16.8935 14.0625ZM16.0522 5.1C15.4157 5.1 14.9178 5.31562 14.5586 5.74687C14.1994 6.17188 14.0104 6.92812 13.9915 8.01562H18.0467C18.0278 6.93437 17.8482 6.17812 17.5079 5.74687C17.1676 5.31562 16.6823 5.1 16.0522 5.1Z" fill="white"/>
<path d="M27.1031 14.0625C25.2756 14.0625 23.9207 13.6469 23.0385 12.8156C22.1562 11.9781 21.7151 10.625 21.7151 8.75625C21.7151 7.025 22.1152 5.71562 22.9156 4.82812C23.7222 3.93437 24.8471 3.4875 26.2902 3.4875C27.6766 3.4875 28.7384 3.93437 29.4757 4.82812C30.2131 5.72187 30.5817 7.05625 30.5817 8.83125V9.49688H24.2106C24.2484 10.4844 24.5131 11.1781 25.0046 11.5781C25.5025 11.9719 26.3154 12.1687 27.4434 12.1687C27.8404 12.1687 28.2563 12.1375 28.6912 12.075C29.126 12.0125 29.5734 11.925 30.0335 11.8125V13.6969C29.5041 13.8281 29 13.9219 28.521 13.9781C28.0484 14.0344 27.5758 14.0625 27.1031 14.0625ZM26.2618 5.1C25.6253 5.1 25.1275 5.31562 24.7683 5.74687C24.4091 6.17188 24.22 6.92812 24.2011 8.01562H28.2563C28.2374 6.93437 28.0578 6.17812 27.7175 5.74687C27.3772 5.31562 26.892 5.1 26.2618 5.1Z" fill="white"/>
<path d="M32.4163 18V3.64687H34.5148L34.666 4.75312H34.7889C35.0914 4.37187 35.4758 4.06562 35.9421 3.83437C36.4148 3.60312 36.9567 3.4875 37.568 3.4875C38.3242 3.4875 39.0174 3.65625 39.6476 3.99375C40.2778 4.33125 40.7819 4.87187 41.16 5.61562C41.5444 6.35937 41.7366 7.34375 41.7366 8.56875C41.7366 10.375 41.2735 11.7437 40.3471 12.675C39.4207 13.6 38.0595 14.0625 36.2635 14.0625C36.0304 14.0625 35.794 14.0531 35.5546 14.0344C35.3214 14.0156 35.104 13.9938 34.9023 13.9688V18H32.4163ZM36.273 12.1594C37.2561 12.1594 37.9934 11.8969 38.4849 11.3719C38.9827 10.8469 39.2317 9.97813 39.2317 8.76562C39.2317 7.92188 39.1308 7.26562 38.9292 6.79688C38.7275 6.32812 38.4502 6 38.0973 5.8125C37.7444 5.61875 37.338 5.52187 36.8779 5.52187C36.5124 5.52187 36.1532 5.59375 35.8003 5.7375C35.4474 5.88125 35.1481 6.10625 34.9023 6.4125V12.0188C35.0914 12.0563 35.3088 12.0906 35.5546 12.1219C35.8003 12.1469 36.0398 12.1594 36.273 12.1594Z" fill="white"/>
<path d="M43.6967 13.875V3.64687H45.7385L45.937 4.9875H46.0599C46.375 4.4875 46.7815 4.11875 47.2793 3.88125C47.7772 3.64375 48.316 3.525 48.8957 3.525C49.047 3.525 49.1919 3.53125 49.3306 3.54375C49.4692 3.55625 49.5984 3.57188 49.7181 3.59063V5.83125C49.5669 5.80625 49.4062 5.79062 49.236 5.78437C49.0722 5.77187 48.9083 5.76562 48.7445 5.76562C48.2845 5.76562 47.8118 5.8625 47.3266 6.05625C46.8476 6.24375 46.4664 6.52812 46.1828 6.90937V13.875H43.6967Z" fill="white"/>
<path d="M55.2075 14.0625C53.7392 14.0625 52.5702 13.6344 51.7005 12.7781C50.8372 11.9156 50.4055 10.5844 50.4055 8.78438C50.4055 6.97813 50.8309 5.64375 51.6816 4.78125C52.5324 3.91875 53.7076 3.4875 55.2075 3.4875C56.701 3.4875 57.8731 3.91875 58.7239 4.78125C59.5746 5.64375 60 6.975 60 8.775C60 10.5687 59.5683 11.9 58.705 12.7688C57.8416 13.6313 56.6758 14.0625 55.2075 14.0625ZM55.2075 12.1687C55.9259 12.1687 56.4867 11.9281 56.8901 11.4469C57.2934 10.9594 57.495 10.075 57.495 8.79375C57.495 7.925 57.4037 7.24375 57.2209 6.75C57.0382 6.25 56.7735 5.89687 56.4269 5.69063C56.0866 5.48438 55.6801 5.38125 55.2075 5.38125C54.7285 5.38125 54.3189 5.48438 53.9786 5.69063C53.6383 5.89687 53.3737 6.24688 53.1846 6.74062C53.0019 7.22813 52.9105 7.9 52.9105 8.75625C52.9105 9.625 53.0019 10.3094 53.1846 10.8094C53.3674 11.3031 53.6289 11.6531 53.9692 11.8594C54.3158 12.0656 54.7285 12.1687 55.2075 12.1687Z" fill="white"/>
</svg>
